<?xml version="1.0" encoding="utf-8"?>
<!-- Generator: Adobe Illustrator 25.4.1, SVG Export Plug-In . SVG Version: 6.00 Build 0)  -->
<svg version="1.1" id="Layer_1" xmlns="http://www.w3.org/2000/svg" xmlns:xlink="http://www.w3.org/1999/xlink" x="0px" y="0px"
	 viewBox="0 0 21.3 22.1" style="enable-background:new 0 0 21.3 22.1;" xml:space="preserve">
<style type="text/css">
	.st0{fill:none;}
	.st1{fill:#076382;}
	.st2{fill:#FFFFFF;}
</style>
<g>
	<path class="st0" d="M15.2,15.4c-1.4,0-2.5,1.1-2.5,2.5s1.1,2.5,2.5,2.5s2.5-1.1,2.5-2.5S16.6,15.4,15.2,15.4z M15.2,18.9
		c-0.6,0-1-0.4-1-1s0.4-1,1-1s1,0.4,1,1S15.8,18.9,15.2,18.9z"/>
	<path class="st1" d="M15.2,16.9c-0.6,0-1,0.4-1,1s0.4,1,1,1s1-0.4,1-1S15.8,16.9,15.2,16.9z"/>
	<path class="st1" d="M15.2,13.9c-2.7,0-5.2,1.7-6.1,4.1c0.9,2.3,3.3,4.1,6.1,4.1c2.7,0,5.2-1.7,6.1-4.1
		C20.3,15.6,17.9,13.9,15.2,13.9z M15.2,20.5c-1.4,0-2.5-1.1-2.5-2.5s1.1-2.5,2.5-2.5s2.5,1.1,2.5,2.5
		C17.7,19.3,16.6,20.5,15.2,20.5z"/>
	<path class="st1" d="M18.2,0H2C0.9,0,0,0.9,0,2v15.9c0,1.1,0.9,2,2,2h5.9c-0.3-0.4-0.5-0.8-0.7-1.3l-0.3-0.7l0.3-0.7
		c1.3-3.2,4.5-5.4,8-5.4c1.9,0,3.6,0.6,5.1,1.6V2C20.2,0.9,19.3,0,18.2,0z"/>
	<path class="st2" d="M16.5,8.9L16.5,8.9L16.5,8.9c-0.2,0-1,0-1.4,0l0,0c-3,0-3.4-5.6-3.4-5.6c0-0.3-0.2-0.5-0.5-0.5
		c-0.3,0-0.5,0.2-0.5,0.4c-0.3,2.5-1.3,5.9-2.3,5.9l0,0c-0.7,0-1.4-1.3-1.7-2C6.6,6.9,6.4,6.8,6.2,6.8l0,0C6,6.8,5.8,6.9,5.7,7.1
		C5.4,8,4.9,9,4.6,9.3H3.5C3.2,9.3,3,9.5,3,9.8s0.2,0.5,0.5,0.5h1.3c0.2,0,0.6,0,1.4-1.8c0.4,0.7,1.2,1.6,2,1.6l0,0
		c1.4,0,2.3-2.2,2.8-4.2c0.5,1.8,1.7,3.9,3.9,3.9c0.5,0,0.9,0,1.2,0c0.1,0,0.3,0,0.3,0l0,0C17,9.8,16.9,8.9,16.5,8.9z"/>
</g>
</svg>
